Results
version=1
nRows=4
nColumns=211
inDegrees=yes
endheader
time	/jointset/ground_platform/platform_rx/value	/jointset/ground_platform/platform_rx/speed	/jointset/ground_platform/platform_ry/value	/jointset/ground_platform/platform_ry/speed	/jointset/ground_platform/platform_rz/value	/jointset/ground_platform/platform_rz/speed	/jointset/ground_platform/platform_ty/value	/jointset/ground_platform/platform_ty/speed	/jointset/ground_pelvis/pelvis_tilt/value	/jointset/ground_pelvis/pelvis_tilt/speed	/jointset/ground_pelvis/pelvis_list/value	/jointset/ground_pelvis/pelvis_list/speed	/jointset/ground_pelvis/pelvis_rotation/value	/jointset/ground_pelvis/pelvis_rotation/speed	/jointset/ground_pelvis/pelvis_tx/value	/jointset/ground_pelvis/pelvis_tx/speed	/jointset/ground_pelvis/pelvis_ty/value	/jointset/ground_pelvis/pelvis_ty/speed	/jointset/ground_pelvis/pelvis_tz/value	/jointset/ground_pelvis/pelvis_tz/speed	/jointset/hip_r/hip_flexion_r/value	/jointset/hip_r/hip_flexion_r/speed	/jointset/hip_r/hip_adduction_r/value	/jointset/hip_r/hip_adduction_r/speed	/jointset/hip_r/hip_rotation_r/value	/jointset/hip_r/hip_rotation_r/speed	/jointset/walker_knee_r/knee_angle_r/value	/jointset/walker_knee_r/knee_angle_r/speed	/jointset/patellofemoral_r/knee_angle_r_beta/value	/jointset/patellofemoral_r/knee_angle_r_beta/speed	/jointset/ankle_r/ankle_angle_r/value	/jointset/ankle_r/ankle_angle_r/speed	/jointset/subtalar_r/subtalar_angle_r/value	/jointset/subtalar_r/subtalar_angle_r/speed	/jointset/mtp_r/mtp_angle_r/value	/jointset/mtp_r/mtp_angle_r/speed	/jointset/hip_l/hip_flexion_l/value	/jointset/hip_l/hip_flexion_l/speed	/jointset/hip_l/hip_adduction_l/value	/jointset/hip_l/hip_adduction_l/speed	/jointset/hip_l/hip_rotation_l/value	/jointset/hip_l/hip_rotation_l/speed	/jointset/walker_knee_l/knee_angle_l/value	/jointset/walker_knee_l/knee_angle_l/speed	/jointset/patellofemoral_l/knee_angle_l_beta/value	/jointset/patellofemoral_l/knee_angle_l_beta/speed	/jointset/socket/socket_flexion/value	/jointset/socket/socket_flexion/speed	/jointset/socket/socket_adduction/value	/jointset/socket/socket_adduction/speed	/jointset/socket/socket_rotation/value	/jointset/socket/socket_rotation/speed	/jointset/socket/socket_tx/value	/jointset/socket/socket_tx/speed	/jointset/socket/socket_ty/value	/jointset/socket/socket_ty/speed	/jointset/socket/socket_tz/value	/jointset/socket/socket_tz/speed	/jointset/pros_ankle/pros_ankle_rx/value	/jointset/pros_ankle/pros_ankle_rx/speed	/jointset/pros_ankle/pros_ankle_ry/value	/jointset/pros_ankle/pros_ankle_ry/speed	/jointset/pros_ankle/pros_ankle_rz/value	/jointset/pros_ankle/pros_ankle_rz/speed	/jointset/pros_ankle/pros_ankle_tx/value	/jointset/pros_ankle/pros_ankle_tx/speed	/jointset/pros_ankle/pros_ankle_ty/value	/jointset/pros_ankle/pros_ankle_ty/speed	/jointset/pros_ankle/pros_ankle_tz/value	/jointset/pros_ankle/pros_ankle_tz/speed	/jointset/foot_flex/foot_flex/value	/jointset/foot_flex/foot_flex/speed	/jointset/back/lumbar_extension/value	/jointset/back/lumbar_extension/speed	/jointset/back/lumbar_bending/value	/jointset/back/lumbar_bending/speed	/jointset/back/lumbar_rotation/value	/jointset/back/lumbar_rotation/speed	/jointset/acromial_r/arm_flex_r/value	/jointset/acromial_r/arm_flex_r/speed	/jointset/acromial_r/arm_add_r/value	/jointset/acromial_r/arm_add_r/speed	/jointset/acromial_r/arm_rot_r/value	/jointset/acromial_r/arm_rot_r/speed	/jointset/elbow_r/elbow_flex_r/value	/jointset/elbow_r/elbow_flex_r/speed	/jointset/radioulnar_r/pro_sup_r/value	/jointset/radioulnar_r/pro_sup_r/speed	/jointset/radius_hand_r/wrist_flex_r/value	/jointset/radius_hand_r/wrist_flex_r/speed	/jointset/radius_hand_r/wrist_dev_r/value	/jointset/radius_hand_r/wrist_dev_r/speed	/jointset/acromial_l/arm_flex_l/value	/jointset/acromial_l/arm_flex_l/speed	/jointset/acromial_l/arm_add_l/value	/jointset/acromial_l/arm_add_l/speed	/jointset/acromial_l/arm_rot_l/value	/jointset/acromial_l/arm_rot_l/speed	/jointset/elbow_l/elbow_flex_l/value	/jointset/elbow_l/elbow_flex_l/speed	/jointset/radioulnar_l/pro_sup_l/value	/jointset/radioulnar_l/pro_sup_l/speed	/jointset/radius_hand_l/wrist_flex_l/value	/jointset/radius_hand_l/wrist_flex_l/speed	/jointset/radius_hand_l/wrist_dev_l/value	/jointset/radius_hand_l/wrist_dev_l/speed	/forceset/addbrev_r/activation	/forceset/addlong_r/activation	/forceset/addlong_r/fiber_length	/forceset/addmagDist_r/activation	/forceset/addmagIsch_r/activation	/forceset/addmagIsch_r/fiber_length	/forceset/addmagMid_r/activation	/forceset/addmagProx_r/activation	/forceset/bflh_r/activation	/forceset/bflh_r/fiber_length	/forceset/bfsh_r/activation	/forceset/edl_r/activation	/forceset/edl_r/fiber_length	/forceset/ehl_r/activation	/forceset/ehl_r/fiber_length	/forceset/fdl_r/activation	/forceset/fdl_r/fiber_length	/forceset/fhl_r/activation	/forceset/fhl_r/fiber_length	/forceset/gaslat_r/activation	/forceset/gaslat_r/fiber_length	/forceset/gasmed_r/activation	/forceset/gasmed_r/fiber_length	/forceset/glmax1_r/activation	/forceset/glmax2_r/activation	/forceset/glmax3_r/activation	/forceset/glmed1_r/activation	/forceset/glmed2_r/activation	/forceset/glmed3_r/activation	/forceset/glmin1_r/activation	/forceset/glmin2_r/activation	/forceset/glmin3_r/activation	/forceset/glmin3_r/fiber_length	/forceset/grac_r/activation	/forceset/iliacus_r/activation	/forceset/perbrev_r/activation	/forceset/perbrev_r/fiber_length	/forceset/perlong_r/activation	/forceset/perlong_r/fiber_length	/forceset/piri_r/activation	/forceset/piri_r/fiber_length	/forceset/psoas_r/activation	/forceset/recfem_r/activation	/forceset/recfem_r/fiber_length	/forceset/sart_r/activation	/forceset/semimem_r/activation	/forceset/semimem_r/fiber_length	/forceset/semiten_r/activation	/forceset/semiten_r/fiber_length	/forceset/soleus_r/activation	/forceset/soleus_r/fiber_length	/forceset/tfl_r/activation	/forceset/tfl_r/fiber_length	/forceset/tibant_r/activation	/forceset/tibant_r/fiber_length	/forceset/tibpost_r/activation	/forceset/tibpost_r/fiber_length	/forceset/vasint_r/activation	/forceset/vasint_r/fiber_length	/forceset/vaslat_r/activation	/forceset/vaslat_r/fiber_length	/forceset/vasmed_r/activation	/forceset/vasmed_r/fiber_length	/forceset/addbrev_l/activation	/forceset/addlong_l/activation	/forceset/addlong_l/fiber_length	/forceset/addmagDist_l/activation	/forceset/addmagIsch_l/activation	/forceset/addmagIsch_l/fiber_length	/forceset/addmagMid_l/activation	/forceset/addmagProx_l/activation	/forceset/bflh_l/activation	/forceset/bflh_l/fiber_length	/forceset/bfsh_l/activation	/forceset/glmax1_l/activation	/forceset/glmax2_l/activation	/forceset/glmax3_l/activation	/forceset/glmed1_l/activation	/forceset/glmed2_l/activation	/forceset/glmed3_l/activation	/forceset/glmin1_l/activation	/forceset/glmin2_l/activation	/forceset/glmin3_l/activation	/forceset/glmin3_l/fiber_length	/forceset/grac_l/activation	/forceset/iliacus_l/activation	/forceset/piri_l/activation	/forceset/piri_l/fiber_length	/forceset/psoas_l/activation	/forceset/recfem_l/activation	/forceset/recfem_l/fiber_length	/forceset/sart_l/activation	/forceset/semimem_l/activation	/forceset/semimem_l/fiber_length	/forceset/semiten_l/activation	/forceset/semiten_l/fiber_length	/forceset/tfl_l/activation	/forceset/tfl_l/fiber_length	/forceset/vasint_l/activation	/forceset/vasint_l/fiber_length	/forceset/vaslat_l/activation	/forceset/vaslat_l/fiber_length	/forceset/vasmed_l/activation	/forceset/vasmed_l/fiber_length
      0.23662122	     20.00000000	     -0.00000000	      0.00000000	      0.00000000	      0.00000000	     -0.00000000	      0.25000000	      0.00000000	      3.16754484	      1.79645154	      0.46010114	     -0.25927403	     -0.15040979	      2.92689429	      0.00317966	      0.01360181	      1.55968436	     -2.32413403	     -0.00099536	     -0.01103936	     -6.37085355	    -14.94733193	      2.02385334	     25.61775797	    -19.05707233	   -124.88950556	     -8.70082539	    -47.34127942	     -0.15185805	     -0.82626120	    -22.36565514	    -16.14506364	     -0.00000000	     -0.00000000	      0.00000000	      0.00000000	     -7.45116576	    -17.17134699	      4.93495884	     38.19877031	    -21.32205301	   -129.86033475	    -20.68845087	   -103.18010112	     -0.36108158	     -1.80083249	    -16.21592398	    -57.45920629	      7.84710677	     60.77478950	    -23.19839384	   -140.22895453	     -0.00000000	     -0.00000000	     -0.01238575	     -0.09797736	      0.00000000	      0.00000000	      0.00000000	      0.00000000	      0.00000000	      0.00000000	     -0.00000000	     -0.00000000	      0.00000000	      0.00000000	      0.00000000	      0.00000000	     -0.00000000	      0.00000000	      2.49153497	      5.45461863	     -3.31773059	     -0.55571727	     -0.40044996	      1.12768932	      0.13638234	     -2.78202484	      0.22632921	     -1.91254381	     -0.08391019	     -1.01117829	     -0.00396135	     -0.07046634	     -0.14908991	      0.51101030	      0.06647185	      0.20715010	     -0.00000000	     -0.00000000	      0.00000000	      0.00000000	      0.24317148	     -1.74729096	      0.10192630	      0.90952481	      0.02952646	      0.28205391	     -0.16788477	      0.33455091	      0.02332130	     -0.25087672	     -0.00000000	     -0.00000000	     -0.00000000	     -0.00000000	     -0.02046498	     -0.02046498	      0.11747314	     -0.02046498	     -0.02046498	      0.12168718	     -0.02046498	     -0.02046498	     -0.02046498	      0.08689522	     -0.02046498	     -0.02046498	      0.08115973	     -0.02046498	      0.09089815	     -0.02046498	      0.04183308	     -0.02046498	      0.04555293	     -0.02046498	      0.05624494	     -0.02046498	      0.04084059	     -0.02046498	     -0.02046498	     -0.02046498	     -0.02046498	     -0.02046498	     -0.02046498	     -0.02046498	     -0.02046498	     -0.02046498	      0.03217095	     -0.02046498	     -0.02046498	     -0.02046498	      0.04607725	     -0.02046498	      0.05072687	     -0.02046498	      0.01346882	     -0.02046498	     -0.02046498	      0.06129726	     -0.02046498	     -0.02046498	      0.06541370	     -0.02046498	      0.21097848	     -0.02046498	      0.03302147	     -0.02046498	      0.09900934	     -0.02046498	      0.08073749	     -0.02046498	      0.03535172	     -0.02046498	      0.07277358	     -0.02046498	      0.07296936	     -0.02046498	      0.07465153	     -0.02046498	     -0.02046498	      0.11573427	     -0.02046498	     -0.02046498	      0.11971429	     -0.02046498	     -0.02046498	     -0.02046498	      0.09015356	     -0.02046498	     -0.02046498	     -0.02046498	     -0.02046498	     -0.02046498	     -0.02046498	     -0.02046498	     -0.02046498	     -0.02046498	     -0.02046498	      0.03268791	     -0.02046498	     -0.02046498	     -0.02046498	      0.01299730	     -0.02046498	     -0.02046498	      0.05259342	     -0.02046498	     -0.02046498	      0.06921747	     -0.02046498	      0.21534162	     -0.02046498	      0.09854779	     -0.02046498	      0.06293381	     -0.02046498	      0.06514352	     -0.02046498	      0.06697885
      0.23852356	     20.00000000	     -0.00000000	      0.00000000	      0.00000000	      0.00000000	     -0.00000000	      0.25000000	      0.00000000	      3.17099110	      1.82852002	      0.45947397	     -0.40002714	     -0.14478753	      2.98402245	      0.00320555	      0.01360973	      1.55524526	     -2.34286310	     -0.00101642	     -0.01109497	     -6.39932969	    -14.99282810	      2.07299170	     26.04326641	    -19.29480830	   -125.04902849	     -8.79117546	    -47.64790348	     -0.15343496	     -0.83161280	    -22.39613678	    -15.90186720	     -0.00000000	     -0.00000000	      0.00000000	      0.00000000	     -7.48387365	    -17.21784087	      5.00774916	     38.32822155	    -21.56898766	   -129.74829967	    -20.88506384	   -103.52512689	     -0.36451313	     -1.80685432	    -16.32487591	    -57.08375477	      7.96285770	     60.91688180	    -23.46527057	   -140.34628368	     -0.00000000	     -0.00000000	     -0.01257318	     -0.09908074	      0.00000000	      0.00000000	      0.00000000	      0.00000000	      0.00000000	      0.00000000	     -0.00000000	     -0.00000000	      0.00000000	      0.00000000	      0.00000000	      0.00000000	     -0.00000000	      0.00000000	      2.50177662	      5.31257653	     -3.31882171	     -0.59346685	     -0.39815125	      1.28892834	      0.13104632	     -2.82798267	      0.22269687	     -1.90585877	     -0.08585611	     -1.03458039	     -0.00409836	     -0.07356743	     -0.14812481	      0.50341732	      0.06687417	      0.21586641	     -0.00000000	     -0.00000000	      0.00000000	     -0.00000000	      0.23985741	     -1.73651086	      0.10367962	      0.93376953	      0.03006850	      0.28780267	     -0.16725949	      0.32262319	      0.02284140	     -0.25359658	     -0.00000000	     -0.00000000	     -0.00000000	     -0.00000000	     -0.02070991	     -0.02070991	      0.11746679	     -0.02070991	     -0.02070991	      0.12166363	     -0.02070991	     -0.02070991	     -0.02070991	      0.08688729	     -0.02070991	     -0.02070991	      0.08117461	     -0.02070991	      0.09091364	     -0.02070991	      0.04182708	     -0.02070991	      0.04554381	     -0.02070991	      0.05623495	     -0.02070991	      0.04081077	     -0.02070991	     -0.02070991	     -0.02070991	     -0.02070991	     -0.02070991	     -0.02070991	     -0.02070991	     -0.02070991	     -0.02070991	      0.03211824	     -0.02070991	     -0.02070991	     -0.02070991	      0.04607336	     -0.02070991	      0.05072134	     -0.02070991	      0.01336954	     -0.02070991	     -0.02070991	      0.06124808	     -0.02070991	     -0.02070991	      0.06543502	     -0.02070991	      0.21100030	     -0.02070991	      0.03300069	     -0.02070991	      0.09904253	     -0.02070991	      0.08075523	     -0.02070991	      0.03534534	     -0.02070991	      0.07270062	     -0.02070991	      0.07291008	     -0.02070991	      0.07459273	     -0.02070991	     -0.02070991	      0.11570910	     -0.02070991	     -0.02070991	      0.11968001	     -0.02070991	     -0.02070991	     -0.02070991	      0.09017455	     -0.02070991	     -0.02070991	     -0.02070991	     -0.02070991	     -0.02070991	     -0.02070991	     -0.02070991	     -0.02070991	     -0.02070991	     -0.02070991	      0.03263620	     -0.02070991	     -0.02070991	     -0.02070991	      0.01290332	     -0.02070991	     -0.02070991	      0.05245734	     -0.02070991	     -0.02070991	      0.06926698	     -0.02070991	      0.21540255	     -0.02070991	      0.09857062	     -0.02070991	      0.06276912	     -0.02070991	      0.06501557	     -0.02070991	      0.06685539
      0.24042589	     20.00000000	     -0.00000000	      0.00000000	      0.00000000	      0.00000000	     -0.00000000	      0.25000000	      0.00000000	      3.17450426	      1.86582928	      0.45857822	     -0.54191731	     -0.13905662	      3.04110279	      0.00323144	      0.01361823	      1.55077054	     -2.36158657	     -0.00103757	     -0.01114935	     -6.42789892	    -15.04402496	      2.12294043	     26.47001959	    -19.53283296	   -125.19310175	     -8.88211104	    -47.95666850	     -0.15502208	     -0.83700176	    -22.42615711	    -15.66086881	     -0.00000000	     -0.00000000	      0.00000000	      0.00000000	     -7.51667812	    -17.27200825	      5.08078311	     38.45472433	    -21.81569083	   -129.61730748	    -21.08233717	   -103.87727078	     -0.36795620	     -1.81300039	    -16.43311696	    -56.71559731	      8.07887121	     61.05143431	    -23.73235646	   -140.44922789	     -0.00000000	     -0.00000000	     -0.01276273	     -0.10019938	      0.00000000	      0.00000000	      0.00000000	      0.00000000	      0.00000000	      0.00000000	     -0.00000000	     -0.00000000	      0.00000000	      0.00000000	      0.00000000	      0.00000000	     -0.00000000	      0.00000000	      2.51174850	      5.17140602	     -3.31999137	     -0.63718736	     -0.39554499	      1.45135341	      0.12562290	     -2.87385459	      0.21907859	     -1.89799300	     -0.08784651	     -1.05801299	     -0.00424126	     -0.07665856	     -0.14717489	      0.49517404	      0.06729325	      0.22475988	     -0.00000000	     -0.00000000	      0.00000000	     -0.00000000	      0.23656519	     -1.72453324	      0.10547911	      0.95812806	      0.03062149	      0.29359108	     -0.16665763	      0.31002402	      0.02235651	     -0.25617370	     -0.00000000	     -0.00000000	     -0.00000000	     -0.00000000	     -0.02095483	     -0.02095483	      0.11745972	     -0.02095483	     -0.02095483	      0.12163967	     -0.02095483	     -0.02095483	     -0.02095483	      0.08687938	     -0.02095483	     -0.02095483	      0.08118926	     -0.02095483	      0.09092890	     -0.02095483	      0.04182115	     -0.02095483	      0.04553482	     -0.02095483	      0.05622538	     -0.02095483	      0.04078118	     -0.02095483	     -0.02095483	     -0.02095483	     -0.02095483	     -0.02095483	     -0.02095483	     -0.02095483	     -0.02095483	     -0.02095483	      0.03206577	     -0.02095483	     -0.02095483	     -0.02095483	      0.04606952	     -0.02095483	      0.05071589	     -0.02095483	      0.01327135	     -0.02095483	     -0.02095483	      0.06119871	     -0.02095483	     -0.02095483	      0.06545646	     -0.02095483	      0.21102218	     -0.02095483	      0.03298022	     -0.02095483	      0.09907638	     -0.02095483	      0.08077269	     -0.02095483	      0.03533906	     -0.02095483	      0.07262717	     -0.02095483	      0.07285043	     -0.02095483	      0.07453356	     -0.02095483	     -0.02095483	      0.11568373	     -0.02095483	     -0.02095483	      0.11964566	     -0.02095483	     -0.02095483	     -0.02095483	      0.09019562	     -0.02095483	     -0.02095483	     -0.02095483	     -0.02095483	     -0.02095483	     -0.02095483	     -0.02095483	     -0.02095483	     -0.02095483	     -0.02095483	      0.03258442	     -0.02095483	     -0.02095483	     -0.02095483	      0.01281044	     -0.02095483	     -0.02095483	      0.05232076	     -0.02095483	     -0.02095483	      0.06931646	     -0.02095483	      0.21545271	     -0.02095483	      0.09859347	     -0.02095483	      0.06260379	     -0.02095483	      0.06488722	     -0.02095483	      0.06673160
      0.24232823	     20.00000000	     -0.00000000	      0.00000000	      0.00000000	      0.00000000	     -0.00000000	      0.25000000	      0.00000000	      3.17809618	      1.91202185	      0.45741238	     -0.68375686	     -0.13321711	      3.09821853	      0.00325736	      0.01362738	      1.54626021	     -2.38029906	     -0.00105884	     -0.01120265	     -6.45657453	    -15.10556896	      2.17370119	     26.89674535	    -19.77111679	   -125.32145930	     -8.97363720	    -48.26909563	     -0.15661951	     -0.84245465	    -22.45572472	    -15.42688010	     -0.00000000	     -0.00000000	      0.00000000	      0.00000000	     -7.54959550	    -17.33719493	      5.15405553	     38.57908170	    -22.06212565	   -129.46589806	    -21.28027800	   -104.22466493	     -0.37141092	     -1.81906356	    -16.54065318	    -56.33994152	      8.19513191	     61.17633112	    -23.99962311	   -140.53599178	     -0.00000000	     -0.00000000	     -0.01295442	     -0.10133146	      0.00000000	      0.00000000	      0.00000000	      0.00000000	      0.00000000	      0.00000000	     -0.00000000	     -0.00000000	      0.00000000	      0.00000000	      0.00000000	      0.00000000	     -0.00000000	      0.00000000	      2.52145144	      5.02954410	     -3.32125312	     -0.69108937	     -0.39262967	      1.61358952	      0.12011213	     -2.91985907	      0.21547708	     -1.88806414	     -0.08988129	     -1.08118883	     -0.00438998	     -0.07969055	     -0.14624159	      0.48584985	      0.06772944	      0.23385768	     -0.00000000	     -0.00000000	      0.00000000	     -0.00000000	      0.23329755	     -1.71051907	      0.10732487	      0.98237111	      0.03118550	      0.29937273	     -0.16608068	      0.29636760	      0.02186696	     -0.25845760	     -0.00000000	     -0.00000000	     -0.00000000	     -0.00000000	     -0.02119976	     -0.02119976	      0.11745197	     -0.02119976	     -0.02119976	      0.12161530	     -0.02119976	     -0.02119976	     -0.02119976	      0.08687148	     -0.02119976	     -0.02119976	      0.08120369	     -0.02119976	      0.09094391	     -0.02119976	      0.04181532	     -0.02119976	      0.04552596	     -0.02119976	      0.05621615	     -0.02119976	      0.04075194	     -0.02119976	     -0.02119976	     -0.02119976	     -0.02119976	     -0.02119976	     -0.02119976	     -0.02119976	     -0.02119976	     -0.02119976	      0.03201348	     -0.02119976	     -0.02119976	     -0.02119976	      0.04606575	     -0.02119976	      0.05071053	     -0.02119976	      0.01317425	     -0.02119976	     -0.02119976	      0.06114915	     -0.02119976	     -0.02119976	      0.06547799	     -0.02119976	      0.21104413	     -0.02119976	      0.03296007	     -0.02119976	      0.09911089	     -0.02119976	      0.08078989	     -0.02119976	      0.03533287	     -0.02119976	      0.07255322	     -0.02119976	      0.07279039	     -0.02119976	      0.07447403	     -0.02119976	     -0.02119976	      0.11565817	     -0.02119976	     -0.02119976	      0.11961122	     -0.02119976	     -0.02119976	     -0.02119976	      0.09021675	     -0.02119976	     -0.02119976	     -0.02119976	     -0.02119976	     -0.02119976	     -0.02119976	     -0.02119976	     -0.02119976	     -0.02119976	     -0.02119976	      0.03253251	     -0.02119976	     -0.02119976	     -0.02119976	      0.01271866	     -0.02119976	     -0.02119976	      0.05218370	     -0.02119976	     -0.02119976	      0.06936589	     -0.02119976	      0.21551105	     -0.02119976	      0.09861634	     -0.02119976	      0.06243782	     -0.02119976	      0.06475849	     -0.02119976	      0.06660753
